{"asset":{"version":"2.0","generator":"THREE.GLTFExporter"},"scenes":[{"name":"AuxScene","nodes":[6]}],"scene":0,"nodes":[{"name":"Mesh_house_type04","mesh":0},{"name":"Mesh_house_type04_1","mesh":1},{"name":"Mesh_house_type04_2","mesh":2},{"name":"Mesh_house_type04_3","mesh":3},{"name":"Mesh_house_type04_4","mesh":4},{"name":"house_type04","extras":{"name":"house_type04"},"children":[0,1,2,3,4]},{"name":"Scene","children":[5]}],"bufferViews":[{"buffer":0,"byteOffset":0,"byteLength":3864,"target":34962,"byteStride":12},{"buffer":0,"byteOffset":3864,"byteLength":3864,"target":34962,"byteStride":12},{"buffer":0,"byteOffset":7728,"byteLength":2576,"target":34962,"byteStride":8},{"buffer":0,"byteOffset":10304,"byteLength":1872,"target":34963},{"buffer":0,"byteOffset":12176,"byteLength":504,"target":34962,"byteStride":12},{"buffer":0,"byteOffset":12680,"byteLength":504,"target":34962,"byteStride":12},{"buffer":0,"byteOffset":13184,"byteLength":336,"target":34962,"byteStride":8},{"buffer":0,"byteOffset":13520,"byteLength":216,"target":34963},{"buffer":0,"byteOffset":13736,"byteLength":276,"target":34962,"byteStride":12},{"buffer":0,"byteOffset":14012,"byteLength":276,"target":34962,"byteStride":12},{"buffer":0,"byteOffset":14288,"byteLength":184,"target":34962,"byteStride":8},{"buffer":0,"byteOffset":14472,"byteLength":132,"target":34963},{"buffer":0,"byteOffset":14604,"byteLength":3312,"target":34962,"byteStride":12},{"buffer":0,"byteOffset":17916,"byteLength":3312,"target":34962,"byteStride":12},{"buffer":0,"byteOffset":21228,"byteLength":2208,"target":34962,"byteStride":8},{"buffer":0,"byteOffset":23436,"byteLength":1200,"target":34963},{"buffer":0,"byteOffset":24636,"byteLength":2124,"target":34962,"byteStride":12},{"buffer":0,"byteOffset":26760,"byteLength":2124,"target":34962,"byteStride":12},{"buffer":0,"byteOffset":28884,"byteLength":1416,"target":34962,"byteStride":8},{"buffer":0,"byteOffset":30300,"byteLength":708,"target":34963}],"buffers":[{"byteLength":31008,"uri":"data:application/octet-stream;base64,"}],"accessors":[{"bufferView":0,"componentType":5126,"count":322,"max":[0.6329969763755798,0.3074830174446106,0.4075266122817993],"min":[-0.567003071308136,-0.2898790240287781,-0.4026346802711487],"type":"VEC3"},{"bufferView":1,"componentType":5126,"count":322,"max":[1,1,1],"min":[-1,-1,-1],"type":"VEC3"},{"bufferView":2,"componentType":5126,"count":322,"max":[49.21259689331055,0.990997314453125],"min":[-49.21259689331055,-32.77952575683594],"type":"VEC2"},{"bufferView":3,"componentType":5125,"count":468,"max":[321],"min":[0],"type":"SCALAR"},{"bufferView":4,"componentType":5126,"count":42,"max":[0.5629969239234924,-0.019727587699890137,0.3775020241737366],"min":[-0.43700307607650757,-0.2898790240287781,-0.3826347589492798],"type":"VEC3"},{"bufferView":5,"componentType":5126,"count":42,"max":[0,0,1],"min":[0,0,-1],"type":"VEC3"},{"bufferView":6,"componentType":5126,"count":42,"max":[46.456687927246094,0.9726753234863281],"min":[-28.34645652770996,-9.629920959472656],"type":"VEC2"},{"bufferView":7,"componentType":5125,"count":54,"max":[41],"min":[0],"type":"SCALAR"},{"bufferView":8,"componentType":5126,"count":23,"max":[0.5129969120025635,0.2825956344604492,0.37753862142562866],"min":[-0.44576767086982727,-0.1398790180683136,-0.3826347589492798],"type":"VEC3"},{"bufferView":9,"componentType":5126,"count":23,"max":[0,0,1],"min":[0,0,-1],"type":"VEC3"},{"bufferView":10,"componentType":5126,"count":23,"max":[44.488189697265625,-4.926342010498047],"min":[-11.811023712158203,-21.54644203186035],"type":"VEC2"},{"bufferView":11,"componentType":5125,"count":33,"max":[22],"min":[0],"type":"SCALAR"},{"bufferView":12,"componentType":5126,"count":276,"max":[0.6693772077560425,0.44774797558784485,0.4556048512458801],"min":[-0.6170030832290649,0.08012095093727112,-0.4606347680091858],"type":"VEC3"},{"bufferView":13,"componentType":5126,"count":276,"max":[1,0.9712523818016052,1],"min":[-1,-0.9712523818016052,-1],"type":"VEC3"},{"bufferView":14,"componentType":5126,"count":276,"max":[50.644893646240234,46.06374740600586],"min":[-50.644893646240234,-33.047245025634766],"type":"VEC2"},{"bufferView":15,"componentType":5125,"count":300,"max":[275],"min":[0],"type":"SCALAR"},{"bufferView":16,"componentType":5126,"count":177,"max":[0.6329969763755798,0.4102431535720825,0.3975607752799988],"min":[-0.567003071308136,-0.23987902700901031,-0.4026346802711487],"type":"VEC3"},{"bufferView":17,"componentType":5126,"count":177,"max":[1,0,1],"min":[-1,0,-1],"type":"VEC3"},{"bufferView":18,"componentType":5126,"count":177,"max":[50.644893646240234,46.12495040893555],"min":[-34.960628509521484,-25.673229217529297],"type":"VEC2"},{"bufferView":19,"componentType":5125,"count":177,"max":[176],"min":[0],"type":"SCALAR"}],"materials":[{"pbrMetallicRoughness":{"baseColorFactor":[0.8627450980392157,0.0784313725490196,0.23529411764705882,1],"metallicFactor":0,"roughnessFactor":0.529411792755127},"alphaMode":"BLEND","name":"border"},{"pbrMetallicRoughness":{"baseColorFactor":[0.45098039215686275,0,0.09411764705882353,1],"metallicFactor":0,"roughnessFactor":0.5514705777168274},"alphaMode":"BLEND","name":"door"},{"pbrMetallicRoughness":{"baseColorFactor":[0.7372549019607844,0.8862745098039215,1,1],"metallicFactor":0,"roughnessFactor":0.6323529481887817},"alphaMode":"BLEND","name":"wndow"},{"pbrMetallicRoughness":{"baseColorFactor":[0.8627450980392157,0.0784313725490196,0.23529411764705882,1],"metallicFactor":0,"roughnessFactor":0.6838235259056091},"alphaMode":"BLEND","name":"roof"},{"pbrMetallicRoughness":{"baseColorFactor":[0.8392156862745098,0.4666666666666667,0.5568627450980392,1],"metallicFactor":0,"roughnessFactor":0.5},"alphaMode":"BLEND","name":"main"}],"meshes":[{"primitives":[{"mode":4,"attributes":{"POSITION":0,"NORMAL":1,"TEXCOORD_0":2},"indices":3,"material":0}]},{"primitives":[{"mode":4,"attributes":{"POSITION":4,"NORMAL":5,"TEXCOORD_0":6},"indices":7,"material":1}]},{"primitives":[{"mode":4,"attributes":{"POSITION":8,"NORMAL":9,"TEXCOORD_0":10},"indices":11,"material":2}]},{"primitives":[{"mode":4,"attributes":{"POSITION":12,"NORMAL":13,"TEXCOORD_0":14},"indices":15,"material":3}]},{"primitives":[{"mode":4,"attributes":{"POSITION":16,"NORMAL":17,"TEXCOORD_0":18},"indices":19,"material":4}]}]}