{"asset":{"generator":"3D Builder","version":"2.0"},"scene":0,"scenes":[{"nodes":[0,5]}],"nodes":[{"children":[1,2,3,4]},{"mesh":0,"matrix":[29.950092315673828,0,0,0,0,-2.3823474748496665E-6,-19.984577178955078,0,0,0.50002491474151611,-5.960762194945346E-8,0,-0.59230899810791016,1.5052165736051393E-7,1.2626670598983765,1]},{"mesh":1,"matrix":[4.9907932281494141,0,0,0,0,-4.4029465584571881E-7,-3.6934587955474854,0,0,0.50002491474151611,-5.960762194945346E-8,0,-0.49280783534049988,8.2693532021949068E-8,0.69368356466293335,1]},{"mesh":2,"matrix":[1.65852469535821E-7,2.3475482180401741E-7,-2.7825422286987305,0,-18.628351211547852,3.1274703360395506E-6,-8.437717724518734E-7,0,8.3946723350436514E-8,0.50002491474151611,4.2184296944469679E-8,0,1.0535291433334351,-1.2259910420198139E-7,0.64540117979049683,1]},{"mesh":3,"matrix":[7.9829349517822266,0,0,0,0,-3.7419795262394473E-6,-31.389995574951172,0,0,0.50002491474151611,-5.960762194945346E-8,0,0.24709533154964447,3.5672670151143393E-7,2.9924402236938477,1]},{"children":[6,7,8,9,10,11]},{"mesh":4,"matrix":[39.370079040527344,0,0,0,0,-4.6932791519793682E-6,-39.370075225830078,0,0,39.370075225830078,-4.6932791519793682E-6,0,-0.026187064126133919,0.30988392233848572,0.0025149255525320768,1]},{"mesh":5,"matrix":[39.370079040527344,0,0,0,0,-4.6932791519793682E-6,-39.370075225830078,0,0,39.370075225830078,-4.6932791519793682E-6,0,-0.026187064126133919,0.30988392233848572,0.0025149255525320768,1]},{"mesh":6,"matrix":[39.370079040527344,0,0,0,0,-4.6932791519793682E-6,-39.370075225830078,0,0,39.370075225830078,-4.6932791519793682E-6,0,-0.026187064126133919,0.30988392233848572,0.0025149255525320768,1]},{"mesh":7,"matrix":[39.370079040527344,0,0,0,0,-4.6932791519793682E-6,-39.370075225830078,0,0,39.370075225830078,-4.6932791519793682E-6,0,-0.026187064126133919,0.30988392233848572,0.0025149255525320768,1]},{"mesh":8,"matrix":[39.370079040527344,0,0,0,0,-4.6932791519793682E-6,-39.370075225830078,0,0,39.370075225830078,-4.6932791519793682E-6,0,-0.026187064126133919,0.30988392233848572,0.0025149255525320768,1]},{"mesh":9,"matrix":[39.370079040527344,0,0,0,0,-4.6932791519793682E-6,-39.370075225830078,0,0,39.370075225830078,-4.6932791519793682E-6,0,-0.026187064126133919,0.30988392233848572,0.0025149255525320768,1]}],"meshes":[{"primitives":[{"attributes":{"POSITION":0},"mode":4,"indices":1,"material":0}]},{"primitives":[{"attributes":{"POSITION":2},"mode":4,"indices":3,"material":0}]},{"primitives":[{"attributes":{"POSITION":4},"mode":4,"indices":5,"material":0}]},{"primitives":[{"attributes":{"POSITION":6},"mode":4,"indices":7,"material":0}]},{"primitives":[{"attributes":{"POSITION":8},"mode":4,"indices":9,"material":1}]},{"primitives":[{"attributes":{"POSITION":10},"mode":4,"indices":11,"material":1}]},{"primitives":[{"attributes":{"POSITION":12},"mode":4,"indices":13,"material":1}]},{"primitives":[{"attributes":{"POSITION":14},"mode":4,"indices":15,"material":1}]},{"primitives":[{"attributes":{"POSITION":16},"mode":4,"indices":17,"material":2}]},{"primitives":[{"attributes":{"POSITION":18},"mode":4,"indices":19,"material":3}]}],"materials":[{"name":"Regular","pbrMetallicRoughness":{"baseColorFactor":[0.21586053073406219,0.21586053073406219,0.21586053073406219,1],"metallicFactor":0,"roughnessFactor":1},"alphaMode":"OPAQUE"},{"name":"border","pbrMetallicRoughness":{"baseColorFactor":[0.7803921103477478,0.57647061347961426,0.086274504661560059,1],"metallicFactor":0,"roughnessFactor":0.529411792755127},"alphaMode":"OPAQUE"},{"name":"roof","pbrMetallicRoughness":{"baseColorFactor":[0.7803921103477478,0.57647061347961426,0.086274504661560059,1],"metallicFactor":0,"roughnessFactor":0.68382352590560913},"alphaMode":"OPAQUE"},{"name":"main","pbrMetallicRoughness":{"baseColorFactor":[0.90588241815567017,0.75686269998550415,0.45490199327468872,1],"metallicFactor":0,"roughnessFactor":0.5},"alphaMode":"OPAQUE"}],"accessors":[{"bufferView":0,"byteOffset":0,"count":8,"componentType":5126,"type":"VEC3","min":[0,0.042998004704713821,0],"max":[0.039998002350330353,0.082998007535934448,0.039998002350330353]},{"bufferView":1,"byteOffset":0,"count":36,"componentType":5125,"type":"SCALAR"},{"bufferView":2,"byteOffset":0,"count":8,"componentType":5126,"type":"VEC3","min":[0,0.042998004704713821,0],"max":[0.039998002350330353,0.082998007535934448,0.039998002350330353]},{"bufferView":3,"byteOffset":0,"count":36,"componentType":5125,"type":"SCALAR"},{"bufferView":4,"byteOffset":0,"count":8,"componentType":5126,"type":"VEC3","min":[0,0.042998004704713821,0],"max":[0.039998002350330353,0.082998007535934448,0.039998002350330353]},{"bufferView":5,"byteOffset":0,"count":36,"componentType":5125,"type":"SCALAR"},{"bufferView":6,"byteOffset":0,"count":8,"componentType":5126,"type":"VEC3","min":[0,0.042998004704713821,0],"max":[0.039998002350330353,0.082998007535934448,0.039998002350330353]},{"bufferView":7,"byteOffset":0,"count":36,"componentType":5125,"type":"SCALAR"},{"bufferView":8,"byteOffset":0,"count":168,"componentType":5126,"type":"VEC3","min":[-0.014401878230273724,-0.010351174511015415,-0.0073629277758300304],"max":[0.016065932810306549,0.010216730646789074,0.00025707232998684049]},{"bufferView":9,"byteOffset":0,"count":1182,"componentType":5125,"type":"SCALAR"},{"bufferView":10,"byteOffset":0,"count":12,"componentType":5126,"type":"VEC3","min":[-0.011097845621407032,0.0097168590873479843,-0.0040588956326246262],"max":[-0.0075377817265689373,0.010216730646789074,-0.00049883173778653145]},{"bufferView":11,"byteOffset":0,"count":60,"componentType":5125,"type":"SCALAR"},{"bufferView":12,"byteOffset":0,"count":18,"componentType":5126,"type":"VEC3","min":[-0.0022098775953054428,-0.010107333771884441,-0.0040588956326246262],"max":[0.0038739321753382683,-0.00959527026861906,-0.00049883173778653145]},{"bufferView":13,"byteOffset":0,"count":96,"componentType":5125,"type":"SCALAR"},{"bufferView":14,"byteOffset":0,"count":6,"componentType":5126,"type":"VEC3","min":[-0.01132949348539114,-0.00953430961817503,0.0056947050616145134],"max":[-0.0073183253407478333,-0.00903443805873394,0.00718212965875864]},{"bufferView":15,"byteOffset":0,"count":24,"componentType":5125,"type":"SCALAR"},{"bufferView":16,"byteOffset":0,"count":112,"componentType":5126,"type":"VEC3","min":[-0.015671879053115845,-0.011572361923754215,0.002035070676356554],"max":[0.01698911190032959,0.011691569350659847,0.011366782709956169]},{"bufferView":17,"byteOffset":0,"count":660,"componentType":5125,"type":"SCALAR"},{"bufferView":18,"byteOffset":0,"count":90,"componentType":5126,"type":"VEC3","min":[-0.014401878230273724,-0.010098042897880077,-0.0060929274186491966],"max":[0.016078123822808266,0.010226022452116013,0.010415041819214821]},{"bufferView":19,"byteOffset":0,"count":528,"componentType":5125,"type":"SCALAR"}],"bufferViews":[{"buffer":0,"byteOffset":0,"byteLength":96,"byteStride":12,"target":34962},{"buffer":0,"byteOffset":96,"byteLength":144,"target":34963},{"buffer":0,"byteOffset":240,"byteLength":96,"byteStride":12,"target":34962},{"buffer":0,"byteOffset":336,"byteLength":144,"target":34963},{"buffer":0,"byteOffset":480,"byteLength":96,"byteStride":12,"target":34962},{"buffer":0,"byteOffset":576,"byteLength":144,"target":34963},{"buffer":0,"byteOffset":720,"byteLength":96,"byteStride":12,"target":34962},{"buffer":0,"byteOffset":816,"byteLength":144,"target":34963},{"buffer":0,"byteOffset":960,"byteLength":2016,"byteStride":12,"target":34962},{"buffer":0,"byteOffset":2976,"byteLength":4728,"target":34963},{"buffer":0,"byteOffset":7704,"byteLength":144,"byteStride":12,"target":34962},{"buffer":0,"byteOffset":7848,"byteLength":240,"target":34963},{"buffer":0,"byteOffset":8088,"byteLength":216,"byteStride":12,"target":34962},{"buffer":0,"byteOffset":8304,"byteLength":384,"target":34963},{"buffer":0,"byteOffset":8688,"byteLength":72,"byteStride":12,"target":34962},{"buffer":0,"byteOffset":8760,"byteLength":96,"target":34963},{"buffer":0,"byteOffset":8856,"byteLength":1344,"byteStride":12,"target":34962},{"buffer":0,"byteOffset":10200,"byteLength":2640,"target":34963},{"buffer":0,"byteOffset":12840,"byteLength":1080,"byteStride":12,"target":34962},{"buffer":0,"byteOffset":13920,"byteLength":2112,"target":34963}],"buffers":[{"byteLength":16032,"uri":"gold_house.bin"}]}