{"asset":{"generator":"3D Builder","version":"2.0"},"scene":0,"scenes":[{"nodes":[0,1,2,3,4]}],"nodes":[{"mesh":0,"matrix":[1,0,0,0,0,-1.1920928955078125E-7,-0.99999988079071045,0,0,0.99999988079071045,-1.1920928955078125E-7,0,1.3114144802093506,7.9450217072007945E-8,0.66647666692733765,1]},{"mesh":1,"matrix":[1,0,0,0,0,-1.1920928955078125E-7,-0.99999988079071045,0,0,0.99999988079071045,-1.1920928955078125E-7,0,1.3114144802093506,7.9450217072007945E-8,0.66647666692733765,1]},{"mesh":2,"matrix":[1,0,0,0,0,-1.1920928955078125E-7,-0.99999988079071045,0,0,0.99999988079071045,-1.1920928955078125E-7,0,1.3114144802093506,7.9450217072007945E-8,0.66647666692733765,1]},{"mesh":3,"matrix":[1,0,0,0,0,-1.1920928955078125E-7,-0.99999988079071045,0,0,0.99999988079071045,-1.1920928955078125E-7,0,1.3114144802093506,7.9450217072007945E-8,0.66647666692733765,1]},{"mesh":4,"matrix":[1,0,0,0,0,-1.1920928955078125E-7,-0.99999988079071045,0,0,0.99999988079071045,-1.1920928955078125E-7,0,1.3114144802093506,7.9450217072007945E-8,0.66647666692733765,1]}],"meshes":[{"primitives":[{"attributes":{"POSITION":0},"mode":4,"indices":1,"material":0}]},{"primitives":[{"attributes":{"POSITION":2},"mode":4,"indices":5,"material":1},{"attributes":{"POSITION":3},"mode":4,"indices":6,"material":2},{"attributes":{"POSITION":4},"mode":4,"indices":7,"material":2}]},{"primitives":[{"attributes":{"POSITION":8},"mode":4,"indices":10,"material":0},{"attributes":{"POSITION":9},"mode":4,"indices":11,"material":1}]},{"primitives":[{"attributes":{"POSITION":12},"mode":4,"indices":13,"material":2}]},{"primitives":[{"attributes":{"POSITION":14},"mode":4,"indices":16,"material":2},{"attributes":{"POSITION":15},"mode":4,"indices":17,"material":2}]}],"materials":[{"name":"Metallic","pbrMetallicRoughness":{"baseColorFactor":[1,1,1,1],"metallicFactor":0,"roughnessFactor":1},"alphaMode":"OPAQUE"},{"name":"Metallic","pbrMetallicRoughness":{"baseColorFactor":[0.015208514407277107,0.49693304300308228,0.072271861135959625,1],"metallicFactor":0,"roughnessFactor":1},"alphaMode":"OPAQUE"},{"name":"Metallic","pbrMetallicRoughness":{"baseColorFactor":[0.012983030639588833,0.012983030639588833,0.012983030639588833,1],"metallicFactor":0,"roughnessFactor":1},"alphaMode":"OPAQUE"}],"accessors":[{"bufferView":0,"byteOffset":0,"count":240,"componentType":5126,"type":"VEC3","min":[-5.3114142417907715,-3.3335211277008057,9.0375515355844982E-6],"max":[2.6885855197906494,4.6664738655090332,0.10002138465642929]},{"bufferView":1,"byteOffset":0,"count":1428,"componentType":5125,"type":"SCALAR"},{"bufferView":2,"byteOffset":0,"count":3034,"componentType":5126,"type":"VEC3","min":[-5.31141471862793,-3.3335211277008057,0.10001368075609207],"max":[2.6885700225830078,4.6664586067199707,0.19998803734779358]},{"bufferView":2,"byteOffset":36408,"count":461,"componentType":5126,"type":"VEC3","min":[-2.0614335536956787,-3.3335211277008057,0.10001368075609207],"max":[-0.56141102313995361,-0.33317315578460693,0.19998803734779358]},{"bufferView":2,"byteOffset":41940,"count":557,"componentType":5126,"type":"VEC3","min":[-2.5614070892333984,-0.41607862710952759,0.10001368075609207],"max":[-0.061437249183654785,1.9164528846740723,0.19998803734779358]},{"bufferView":3,"byteOffset":0,"count":15750,"componentType":5125,"type":"SCALAR"},{"bufferView":3,"byteOffset":63000,"count":1602,"componentType":5125,"type":"SCALAR"},{"bufferView":3,"byteOffset":69408,"count":1752,"componentType":5125,"type":"SCALAR"},{"bufferView":4,"byteOffset":0,"count":562,"componentType":5126,"type":"VEC3","min":[-5.43641471862793,-3.45851993560791,0],"max":[2.8135855197906494,4.791473388671875,0.19999974966049194]},{"bufferView":4,"byteOffset":6744,"count":442,"componentType":5126,"type":"VEC3","min":[-5.3114137649536133,-3.3335220813751221,5.6843418860808015E-14],"max":[2.6885850429534912,4.6664719581604,0.19999974966049194]},{"bufferView":5,"byteOffset":0,"count":2400,"componentType":5125,"type":"SCALAR"},{"bufferView":5,"byteOffset":9600,"count":1680,"componentType":5125,"type":"SCALAR"},{"bufferView":6,"byteOffset":0,"count":253,"componentType":5126,"type":"VEC3","min":[-2.0614144802093506,-3.3337488174438477,0.13000102341175079],"max":[-0.56141448020935059,-0.33329802751541138,0.23000042140483856]},{"bufferView":7,"byteOffset":0,"count":1554,"componentType":5125,"type":"SCALAR"},{"bufferView":8,"byteOffset":0,"count":961,"componentType":5126,"type":"VEC3","min":[-2.5614147186279297,-0.583523690700531,0.13000088930130005],"max":[-0.061444997787475586,1.9164445400238037,0.22997522354125977]},{"bufferView":8,"byteOffset":11532,"count":129,"componentType":5126,"type":"VEC3","min":[-2.0614409446716309,-0.583523690700531,0.17998805642127991],"max":[-1.0356365442276,-0.3330797553062439,0.22997522354125977]},{"bufferView":9,"byteOffset":0,"count":5385,"componentType":5125,"type":"SCALAR"},{"bufferView":9,"byteOffset":21540,"count":369,"componentType":5125,"type":"SCALAR"}],"bufferViews":[{"buffer":0,"byteOffset":0,"byteLength":2880,"byteStride":12,"target":34962},{"buffer":0,"byteOffset":2880,"byteLength":5712,"target":34963},{"buffer":0,"byteOffset":8592,"byteLength":48624,"byteStride":12,"target":34962},{"buffer":0,"byteOffset":57216,"byteLength":76416,"target":34963},{"buffer":0,"byteOffset":133632,"byteLength":12048,"byteStride":12,"target":34962},{"buffer":0,"byteOffset":145680,"byteLength":16320,"target":34963},{"buffer":0,"byteOffset":162000,"byteLength":3036,"byteStride":12,"target":34962},{"buffer":0,"byteOffset":165036,"byteLength":6216,"target":34963},{"buffer":0,"byteOffset":171252,"byteLength":13080,"byteStride":12,"target":34962},{"buffer":0,"byteOffset":184332,"byteLength":23016,"target":34963}],"buffers":[{"byteLength":207348,"uri":"culdesac.bin"}]}