{"asset":{"generator":"3D Builder","version":"2.0"},"scene":0,"scenes":[{"nodes":[0,1,2,3,4,5,6]}],"nodes":[{"mesh":0,"matrix":[1,0,0,0,0,-1.1920928955078125E-7,-0.99999988079071045,0,0,0.99999988079071045,-1.1920928955078125E-7,0,0.21233740448951721,0.38196521997451782,0.13217814266681671,1]},{"mesh":1,"matrix":[1,0,0,0,0,-1.1920928955078125E-7,-0.99999988079071045,0,0,0.99999988079071045,-1.1920928955078125E-7,0,0.21233740448951721,0.38196521997451782,0.13217814266681671,1]},{"mesh":2,"matrix":[1,0,0,0,0,-1.1920928955078125E-7,-0.99999988079071045,0,0,0.99999988079071045,-1.1920928955078125E-7,0,0.21233740448951721,0.38196521997451782,0.13217814266681671,1]},{"mesh":3,"matrix":[1,0,0,0,0,-1.1920928955078125E-7,-0.99999988079071045,0,0,0.99999988079071045,-1.1920928955078125E-7,0,0.21233740448951721,0.38196521997451782,0.13217814266681671,1]},{"mesh":4,"matrix":[1,0,0,0,0,-1.1920928955078125E-7,-0.99999988079071045,0,0,0.99999988079071045,-1.1920928955078125E-7,0,0.21233740448951721,0.38196521997451782,0.13217814266681671,1]},{"mesh":5,"matrix":[1,0,0,0,0,-1.1920928955078125E-7,-0.99999988079071045,0,0,0.99999988079071045,-1.1920928955078125E-7,0,0.21233740448951721,0.38196521997451782,0.13217814266681671,1]},{"mesh":6,"matrix":[1,0,0,0,0,-1.1920928955078125E-7,-0.99999988079071045,0,0,0.99999988079071045,-1.1920928955078125E-7,0,0.21233740448951721,0.38196521997451782,0.13217814266681671,1]}],"meshes":[{"primitives":[{"attributes":{"POSITION":0},"mode":4,"indices":1,"material":0}]},{"primitives":[{"attributes":{"POSITION":2},"mode":4,"indices":3,"material":1}]},{"primitives":[{"attributes":{"POSITION":4},"mode":4,"indices":5,"material":2}]},{"primitives":[{"attributes":{"POSITION":6},"mode":4,"indices":7,"material":3}]},{"primitives":[{"attributes":{"POSITION":8},"mode":4,"indices":9,"material":4}]},{"primitives":[{"attributes":{"POSITION":10},"mode":4,"indices":11,"material":5}]},{"primitives":[{"attributes":{"POSITION":12},"mode":4,"indices":13,"material":6}]}],"materials":[{"name":"Material.005","pbrMetallicRoughness":{"baseColorFactor":[0.20000001788139343,0.51764708757400513,0.12156862020492554,1],"metallicFactor":0,"roughnessFactor":0.39545455574989319},"alphaMode":"OPAQUE"},{"name":"Material.003","pbrMetallicRoughness":{"baseColorFactor":[0.20000001788139343,0.51764708757400513,0.12156862020492554,1],"metallicFactor":0,"roughnessFactor":0.39545455574989319},"alphaMode":"OPAQUE"},{"name":"Material.004","pbrMetallicRoughness":{"baseColorFactor":[0.20000001788139343,0.51764708757400513,0.12156862020492554,1],"metallicFactor":0,"roughnessFactor":0.39545455574989319},"alphaMode":"OPAQUE"},{"name":"Material.007","pbrMetallicRoughness":{"baseColorFactor":[0.20000001788139343,0.51764708757400513,0.12156862020492554,1],"metallicFactor":0,"roughnessFactor":0.39545455574989319},"alphaMode":"OPAQUE"},{"name":"Material.006","pbrMetallicRoughness":{"baseColorFactor":[0.20000001788139343,0.51764708757400513,0.12156862020492554,1],"metallicFactor":0,"roughnessFactor":0.39545455574989319},"alphaMode":"OPAQUE"},{"name":"Material.002","pbrMetallicRoughness":{"baseColorFactor":[0.20000001788139343,0.51764708757400513,0.12156862020492554,1],"metallicFactor":0,"roughnessFactor":0.39545455574989319},"alphaMode":"OPAQUE"},{"name":"Material.028","pbrMetallicRoughness":{"baseColorFactor":[0.3803921639919281,0.066666662693023682,0.0235294122248888,1],"metallicFactor":0,"roughnessFactor":0.10909092426300049},"alphaMode":"OPAQUE"}],"accessors":[{"bufferView":0,"byteOffset":0,"count":1726,"componentType":5126,"type":"VEC3","min":[-0.11027099192142487,-0.60932457447052,0.16632495820522308],"max":[0.668322741985321,0.02660294808447361,1.7197177410125732]},{"bufferView":1,"byteOffset":0,"count":10344,"componentType":5125,"type":"SCALAR"},{"bufferView":2,"byteOffset":0,"count":1728,"componentType":5126,"type":"VEC3","min":[-0.22223606705665588,0.056740079075098038,0.16811762750148773],"max":[0.072472304105758667,1.0073632001876831,1.714958667755127]},{"bufferView":3,"byteOffset":0,"count":10356,"componentType":5125,"type":"SCALAR"},{"bufferView":4,"byteOffset":0,"count":1727,"componentType":5126,"type":"VEC3","min":[-1.2194308042526245,-0.16345828771591187,0.16789528727531433],"max":[-0.03390204906463623,0.25715947151184082,1.8661297559738159]},{"bufferView":5,"byteOffset":0,"count":10350,"componentType":5125,"type":"SCALAR"},{"bufferView":6,"byteOffset":0,"count":1728,"componentType":5126,"type":"VEC3","min":[0.1814967542886734,-0.2384592741727829,0.14817212522029877],"max":[0.7447737455368042,0.052002869546413422,1.124487042427063]},{"bufferView":7,"byteOffset":0,"count":10356,"componentType":5125,"type":"SCALAR"},{"bufferView":8,"byteOffset":0,"count":1728,"componentType":5126,"type":"VEC3","min":[-0.49606937170028687,-0.74300682544708252,0.14193233847618103],"max":[-0.083308577537536621,-0.10673738270998001,1.2914849519729614]},{"bufferView":9,"byteOffset":0,"count":10356,"componentType":5125,"type":"SCALAR"},{"bufferView":10,"byteOffset":0,"count":1728,"componentType":5126,"type":"VEC3","min":[0.0074589401483535767,-0.015321666374802589,0.16888397932052612],"max":[0.79475599527359009,0.30202773213386536,1.5510425567626953]},{"bufferView":11,"byteOffset":0,"count":10356,"componentType":5125,"type":"SCALAR"},{"bufferView":12,"byteOffset":0,"count":3008,"componentType":5126,"type":"VEC3","min":[-0.509824812412262,-0.50982522964477539,-0.38196524977684021],"max":[0.50982493162155151,0.50982439517974854,0.39958354830741882]},{"bufferView":13,"byteOffset":0,"count":18036,"componentType":5125,"type":"SCALAR"}],"bufferViews":[{"buffer":0,"byteOffset":0,"byteLength":20712,"byteStride":12,"target":34962},{"buffer":0,"byteOffset":20712,"byteLength":41376,"target":34963},{"buffer":0,"byteOffset":62088,"byteLength":20736,"byteStride":12,"target":34962},{"buffer":0,"byteOffset":82824,"byteLength":41424,"target":34963},{"buffer":0,"byteOffset":124248,"byteLength":20724,"byteStride":12,"target":34962},{"buffer":0,"byteOffset":144972,"byteLength":41400,"target":34963},{"buffer":0,"byteOffset":186372,"byteLength":20736,"byteStride":12,"target":34962},{"buffer":0,"byteOffset":207108,"byteLength":41424,"target":34963},{"buffer":0,"byteOffset":248532,"byteLength":20736,"byteStride":12,"target":34962},{"buffer":0,"byteOffset":269268,"byteLength":41424,"target":34963},{"buffer":0,"byteOffset":310692,"byteLength":20736,"byteStride":12,"target":34962},{"buffer":0,"byteOffset":331428,"byteLength":41424,"target":34963},{"buffer":0,"byteOffset":372852,"byteLength":36096,"byteStride":12,"target":34962},{"buffer":0,"byteOffset":408948,"byteLength":72144,"target":34963}],"buffers":[{"byteLength":481092,"uri":"plant.bin"}]}